<!DOCTYPE svg PUBLIC "-//W3C//DTD SVG 20010904//EN" "http://www.w3.org/TR/2001/REC-SVG-20010904/DTD/svg10.dtd">
<svg version="1.0" xmlns="http://www.w3.org/2000/svg" width="363px" height="322px" viewBox="0 0 3630 3220" preserveAspectRatio="xMidYMid meet">
<g id="layer101" fill="#000000" stroke="none">
 <path d="M2949 3015 c-15 -8 -44 -19 -65 -24 -22 -5 -61 -17 -89 -26 -27 -10 -79 -28 -115 -40 -36 -12 -87 -30 -115 -40 -27 -10 -70 -24 -95 -31 -25 -7 -67 -21 -95 -30 -27 -10 -79 -27 -115 -39 -36 -13 -81 -28 -100 -35 -19 -7 -55 -18 -80 -25 -25 -7 -70 -22 -100 -33 -30 -10 -71 -25 -90 -32 -19 -7 -55 -18 -80 -25 -56 -17 -163 -53 -212 -73 l-38 -15 0 -93 0 -93 33 6 c17 3 48 12 67 20 19 8 55 21 80 28 25 7 68 20 95 30 232 81 253 87 274 76 10 -6 36 -14 57 -20 22 -5 62 -17 89 -27 56 -19 155 -53 229 -78 53 -17 60 -16 211 39 33 12 94 33 135 45 41 13 95 31 120 41 l45 18 3 245 c3 265 4 260 -49 231z"/>
 <path d="M630 2725 c-25 -7 -67 -21 -95 -32 -27 -11 -84 -30 -125 -43 -71 -22 -133 -43 -260 -88 l-55 -19 -3 -248 c-2 -233 -1 -247 15 -242 19 6 227 76 303 103 25 9 88 29 140 46 52 17 107 35 123 40 l27 10 0 244 c0 189 -3 244 -12 243 -7 -1 -33 -7 -58 -14z"/>
 <path d="M3010 2404 c-47 -14 -136 -44 -207 -70 -24 -9 -43 -19 -43 -23 0 -4 19 -14 43 -21 38 -11 67 -21 222 -75 28 -9 64 -21 80 -25 17 -4 54 -17 83 -29 69 -28 129 -27 204 4 34 14 66 25 72 25 16 0 126 44 126 51 0 3 -19 11 -42 18 -24 7 -66 21 -93 32 -28 10 -56 19 -63 19 -6 0 -40 11 -74 24 -58 21 -229 77 -253 82 -5 1 -30 -5 -55 -12z"/>
 <path d="M1925 2338 c-27 -11 -63 -24 -80 -28 -16 -4 -52 -16 -80 -25 -27 -10 -79 -27 -115 -40 -36 -12 -87 -30 -115 -40 -27 -9 -69 -22 -92 -27 l-43 -10 0 -245 0 -245 28 6 c15 3 154 48 309 99 l283 92 0 243 0 242 -22 -1 c-13 0 -45 -9 -73 -21z"/>
 <path d="M665 2108 c-33 -12 -87 -31 -120 -43 -98 -36 -189 -65 -202 -65 -6 0 -33 -10 -60 -21 l-48 -21 40 -18 c22 -10 47 -19 55 -19 8 -1 42 -12 75 -25 33 -13 94 -33 135 -46 41 -12 96 -30 123 -41 52 -20 40 -22 187 31 19 7 55 18 80 25 56 17 160 52 222 77 26 10 56 18 67 18 38 0 22 28 -21 38 -45 11 -100 29 -206 69 -34 12 -68 23 -76 23 -8 0 -33 9 -57 20 -55 25 -117 24 -194 -2z"/>
 <path d="M1220 1828 c-19 -6 -62 -20 -95 -33 -33 -12 -94 -33 -135 -45 -41 -13 -102 -33 -135 -45 -33 -12 -94 -33 -135 -45 -41 -13 -102 -33 -135 -45 -33 -12 -94 -33 -135 -45 -41 -12 -103 -34 -137 -47 l-63 -25 0 -240 0 -240 33 5 c17 3 55 13 82 23 28 9 79 27 115 39 36 13 81 28 100 35 19 7 55 18 80 25 25 8 74 24 110 36 36 12 88 30 115 40 28 9 73 25 100 34 28 10 70 24 95 31 25 7 68 21 95 30 28 10 79 27 115 39 36 13 81 28 100 35 19 7 55 18 80 25 60 16 63 37 8 52 -117 31 -155 45 -178 62 -24 18 -25 21 -28 165 -1 80 -6 146 -10 145 -4 -1 -23 -6 -42 -11z"/>
 <path d="M2030 1743 c-25 -8 -74 -25 -110 -38 -36 -12 -87 -30 -115 -39 -27 -10 -70 -24 -95 -31 -81 -23 -150 -50 -150 -57 0 -4 12 -11 28 -14 15 -4 54 -17 87 -29 33 -12 98 -34 145 -49 47 -15 108 -35 135 -45 217 -79 205 -79 440 7 86 32 140 32 225 0 82 -31 153 -55 210 -72 25 -7 68 -21 95 -31 28 -9 73 -25 100 -34 28 -10 79 -28 115 -41 97 -34 118 -35 190 -6 35 14 72 26 82 26 10 0 18 6 18 13 0 7 -145 59 -363 131 -199 65 -378 124 -397 132 -19 7 -107 37 -195 65 -147 48 -232 76 -325 109 -57 20 -73 20 -120 3z"/>
 <path d="M1665 1346 c-33 -13 -98 -35 -145 -50 -47 -15 -107 -35 -135 -45 -27 -11 -88 -31 -135 -45 -47 -15 -107 -35 -135 -45 -27 -10 -84 -28 -125 -41 -41 -13 -102 -33 -135 -45 -33 -12 -94 -33 -135 -45 -41 -13 -102 -33 -135 -45 -33 -12 -86 -30 -117 -40 -32 -10 -58 -21 -58 -25 0 -4 26 -15 58 -25 61 -19 128 -42 207 -70 52 -18 134 -43 172 -52 21 -5 22 -2 25 72 3 90 15 105 103 129 28 7 73 21 100 31 28 10 73 26 100 35 28 9 79 27 115 39 36 13 79 26 95 31 17 4 53 16 80 25 28 10 79 27 115 40 36 12 88 30 115 39 28 10 70 24 95 31 92 27 150 50 147 60 -2 5 -17 12 -33 16 -16 4 -51 16 -77 28 -61 26 -87 26 -162 -3z"/>
 <path d="M2360 1301 c-62 -25 -137 -50 -190 -66 -44 -13 -75 -23 -210 -70 -135 -47 -166 -57 -210 -70 -25 -7 -67 -21 -95 -31 -27 -9 -72 -25 -100 -34 -27 -9 -72 -25 -100 -34 -27 -10 -70 -24 -95 -31 -46 -14 -94 -30 -210 -70 -36 -13 -84 -29 -107 -36 l-43 -12 0 -250 c0 -233 1 -249 17 -242 18 7 69 25 158 55 28 9 79 27 115 39 36 13 79 26 95 31 17 4 53 16 80 25 28 10 79 27 115 40 36 12 88 30 115 39 28 10 70 23 95 31 25 7 68 20 95 30 28 10 73 26 100 35 28 9 79 27 115 39 36 13 79 26 95 31 17 4 53 16 80 25 28 10 76 27 108 38 l57 19 0 244 c0 275 6 258 -80 225z"/>
 <path d="M2390 678 c-52 -16 -124 -40 -160 -53 -118 -41 -164 -57 -210 -70 -25 -7 -67 -21 -95 -31 -27 -9 -72 -25 -100 -34 -27 -9 -72 -25 -100 -34 -27 -10 -70 -24 -95 -31 -44 -13 -75 -23 -210 -70 -36 -12 -87 -30 -115 -40 -27 -9 -70 -22 -94 -28 -25 -7 -46 -17 -48 -23 -2 -6 111 -49 261 -98 l263 -88 124 41 c68 23 138 46 154 51 17 6 77 26 135 45 58 20 125 42 150 51 25 9 88 29 140 46 89 29 178 59 260 88 19 7 55 18 80 25 56 17 160 52 222 77 26 10 54 18 62 18 24 0 19 19 -6 29 -13 5 -66 22 -118 39 -52 17 -115 38 -140 46 -109 38 -233 76 -248 75 -9 0 -60 -14 -112 -31z"/>
 </g>

</svg>